<svg width="800" height="240" viewBox="0 0 800 240" fill="none" xmlns="http://www.w3.org/2000/svg">
<path d="M337.761 45.5957H365.275L421.123 194.273H392.583L380.879 161.257H320.514L309.016 194.273H282.324L337.761 45.5957ZM328.111 139.519H373.077L350.491 75.7417L328.111 139.519Z" fill="white"/>
<path d="M457.215 45.5957V128.24L498.074 83.9447H527.436L485.139 129.266L532.158 194.273H503.618L468.918 146.492L457.215 159.001V194.273H432.781V45.5957H457.215Z" fill="white"/>
<path d="M565.042 45.5957V128.24L605.902 83.9447H635.263L592.966 129.266L639.986 194.273H611.445L576.746 146.492L565.042 159.001V194.273H540.609V45.5957H565.042Z" fill="white"/>
<path d="M672.87 45.5957V70.2047H648.436V45.5957H672.87ZM672.87 83.9447V194.273H648.436V83.9447H672.87Z" fill="white"/>
<path d="M799.745 139.314C799.745 179.098 772.232 196.939 745.335 196.939C718.437 196.939 690.924 179.098 690.924 139.314C690.924 99.5304 718.437 81.4844 745.335 81.4844C772.232 81.4844 799.745 99.5304 799.745 139.314ZM745.335 177.047C760.734 177.047 774.491 164.743 774.491 139.314C774.491 113.885 760.734 101.376 745.335 101.376C729.935 101.376 716.179 113.885 716.179 139.314C716.179 164.743 729.935 177.047 745.335 177.047Z" fill="white"/>
<path d="M122.984 1.23825C121.334 -0.41275 118.657 -0.41275 117.006 1.23825L68.8752 49.3712C67.2242 51.0222 67.2242 53.6993 68.8752 55.3493L117.006 103.483C118.657 105.133 121.334 105.133 122.984 103.483L171.116 55.3493C172.766 53.6993 172.766 51.0222 171.116 49.3712L122.984 1.23825Z" fill="white"/>
<path d="M122.984 136.517C121.334 134.866 118.657 134.866 117.006 136.517L68.8752 184.65C67.2242 186.301 67.2242 188.978 68.8752 190.628L117.006 238.762C118.657 240.412 121.334 240.412 122.984 238.762L171.116 190.628C172.766 188.978 172.766 186.301 171.116 184.65L122.984 136.517Z" fill="white"/>
<path d="M190.621 68.8769C188.97 67.2259 186.294 67.2259 184.643 68.8769L136.512 117.01C134.861 118.661 134.861 121.338 136.512 122.989L184.643 171.122C186.294 172.773 188.97 172.773 190.621 171.122L238.752 122.989C240.403 121.338 240.403 118.661 238.752 117.01L190.621 68.8769Z" fill="white"/>
<path d="M55.3483 68.8769C53.6973 67.2259 51.0203 67.2259 49.3693 68.8769L1.23825 117.01C-0.41275 118.661 -0.41275 121.338 1.23825 122.989L49.3693 171.122C51.0203 172.773 53.6973 172.773 55.3483 171.122L103.479 122.989C105.13 121.338 105.13 118.661 103.479 117.01L55.3483 68.8769Z" fill="white"/>
</svg>
