<svg width="37" height="38" viewBox="0 0 37 38" fill="none" class="Header_logoIcon___hZsP"><rect x="0.5" y="1.35938" width="35.2791" height="35.2791" fill="#100D0D"></rect><path d="M13 26.481V10.6992H18.4109C20.6655 10.6992 22.4691 12.5029 22.4691 14.7574V15.6592C22.4691 16.6963 22.0858 17.6658 21.432 18.3647C22.3338 19.1087 22.92 20.2359 22.92 21.521V22.4229C22.92 24.6774 21.1164 26.481 18.8618 26.481H13ZM15.2545 24.2265H18.8618C19.8764 24.2265 20.6655 23.4374 20.6655 22.4229V21.521C20.6655 20.5065 19.8764 19.7174 18.8618 19.7174H15.2545V24.2265ZM15.2545 17.4629H18.4109C19.4255 17.4629 20.2145 16.6738 20.2145 15.6592V14.7574C20.2145 13.7429 19.4255 12.9538 18.4109 12.9538H15.2545V17.4629Z"></path></svg>