<svg class="object-contain w-24" viewBox="0 0 96 42" fill="none" xmlns="http://www.w3.org/2000/svg"> <path fill-rule="evenodd" clip-rule="evenodd" d="M59.371 4.15106C59.7145 2.75479 58.8555 1.34578 57.4518 1.00329C57.248 0.95336 57.0389 0.927736 56.829 0.927736H21.0794C14.0897 0.924442 8.00259 5.67197 6.33897 12.4242L0.0751925 37.8499C-0.116117 38.6267 0.062125 39.4479 0.558608 40.077C1.05509 40.7062 1.81473 41.0732 2.61885 41.0732H38.3736C45.3607 41.0732 51.4442 36.3265 53.1072 29.5767L59.371 4.15106ZM34.8605 9.26586L34.6748 9.3534C34.6388 9.3671 34.6136 9.40265 34.6122 9.44181C34.6099 9.51023 34.6792 9.56106 34.7424 9.53706L34.9398 9.48557C34.9821 9.47553 35.0307 9.46258 35.0854 9.44804L35.0859 9.4479L35.0861 9.44787C35.1995 9.41769 35.3388 9.38063 35.5002 9.34825C35.7838 9.292 36.07 9.25075 36.3577 9.22467C36.7214 9.19139 37.0876 9.1983 37.4498 9.24526C37.8529 9.30868 38.1846 9.41797 38.5892 9.6658C39.0619 9.9554 39.3002 10.2577 39.5259 10.5441C39.6918 10.7546 39.8509 10.9566 40.0915 11.1385C40.5057 11.4519 41.0802 11.5132 41.5599 11.4C42.1872 11.2255 42.7204 10.9013 43.2681 10.5551C45.1358 9.35243 47.2694 8.34501 49.5237 8.41107C50.0075 8.44694 50.4875 8.48365 50.9691 8.54338C51.1075 8.56054 51.1835 8.56054 51.1835 8.56054C51.2676 8.56238 51.3312 8.46243 51.2611 8.3889C51.0713 8.18959 50.8407 8.01532 50.6157 7.85791C49.0872 6.71641 47.0357 6.51425 45.3021 7.2644C44.4228 7.66303 43.6976 8.25072 42.9668 8.84298C42.5794 9.15694 42.1904 9.47217 41.776 9.76121C41.0865 10.229 40.8465 10.2853 40.3972 9.82516C40.0005 9.4004 39.5166 9.07427 38.9887 8.83974C38.5123 8.64519 38.007 8.5555 37.4937 8.55964L37.4789 8.56062C37.0693 8.58768 36.6652 8.61438 36.2682 8.7269C35.969 8.80523 35.6752 8.90386 35.3888 9.02213C35.2371 9.0854 35.1122 9.1458 35.0095 9.19544C34.9535 9.22256 34.904 9.24646 34.8605 9.26586ZM30.7983 30.5335H30.7966V23.8434C30.7966 22.9032 30.0303 22.1411 29.0851 22.1411H23.5977C22.6963 22.1411 21.9655 22.8679 21.9655 23.7645C21.9655 24.6611 22.6963 25.3879 23.5977 25.3879H26.4283C25.3649 27.1859 23.3395 28.6213 20.9764 28.6885C16.5389 28.8127 13.0568 25.2536 13.0568 20.9055C13.0568 16.5574 16.5389 13.1544 20.9848 13.1544C22.7099 13.1544 24.4619 13.7823 25.9169 14.8517C26.6599 15.4054 27.7103 15.2748 28.2934 14.5562L28.3542 14.4756C28.6183 14.1059 28.7238 13.647 28.6475 13.1998C28.5712 12.7527 28.3194 12.3541 27.9474 12.0917C25.8876 10.6441 23.431 9.85957 20.9089 9.84379C14.3514 9.84379 9.25059 14.6653 9.25059 20.9357C9.25059 27.2699 14.289 32.1535 20.7823 32.1535C23.5555 32.1535 26.1211 30.9767 27.5339 29.3214V30.5335C27.5339 31.4301 28.2646 32.1569 29.1661 32.1569C30.0675 32.1569 30.7983 31.4301 30.7983 30.5335ZM50.1905 21.0013C50.1905 26.0378 46.6105 29.5096 41.4134 29.5096C36.1809 29.5096 32.606 26.0428 32.606 21.0013C32.606 15.928 36.186 12.4948 41.4134 12.4948C46.6105 12.4948 50.1905 15.928 50.1905 21.0013ZM41.4151 15.614C44.4263 15.614 46.548 17.8199 46.548 21.0315C46.548 24.2766 44.4247 26.4826 41.4151 26.4826C38.3735 26.4826 36.2519 24.2766 36.2519 21.0315C36.2519 17.8182 38.3769 15.614 41.4151 15.614ZM75.1629 14.8517C75.9059 15.4054 76.9563 15.2748 77.5394 14.5562L77.5934 14.4773C77.8596 14.1093 77.9679 13.6512 77.8945 13.2038C77.821 12.7564 77.5719 12.3564 77.2019 12.0917C75.142 10.6441 72.6854 9.85957 70.1633 9.84379C63.6059 9.84379 58.505 14.6653 58.505 20.9357C58.505 27.2699 63.5434 32.1535 70.0367 32.1535C72.577 32.1535 75.1426 31.2319 77.2238 29.7193C77.2677 29.6868 77.3099 29.6527 77.3504 29.6168C78.0363 29.0014 78.0914 27.9496 77.4736 27.2665C76.9123 26.6421 75.9711 26.532 75.2793 27.0096C73.7754 28.0589 71.9829 28.6885 70.2308 28.6885C65.7967 28.6885 62.3112 25.2536 62.3112 20.9055C62.3112 16.5574 65.7951 13.1544 70.2308 13.1544C71.9559 13.1544 73.7079 13.7823 75.1629 14.8517ZM96 21.0013C96 26.0378 92.42 29.5096 87.2229 29.5096C81.9905 29.5096 78.4155 26.0428 78.4155 21.0013C78.4155 15.928 81.9955 12.4948 87.2229 12.4948C92.42 12.4931 96 15.928 96 21.0013ZM87.2246 26.4843C84.183 26.4843 82.0613 24.2783 82.0613 21.0332L82.0597 21.0315C82.0597 17.8182 84.1864 15.614 87.2246 15.614C90.2358 15.614 92.3575 17.8199 92.3575 21.0332C92.3575 24.2783 90.2341 26.4843 87.2246 26.4843Z" fill="white"></path> </svg>