<svg width="3009" height="507" viewBox="0 0 3009 507" fill="none" xmlns="http://www.w3.org/2000/svg">
<g clip-path="url(#clip0_3416_5555)">
<path d="M415.383 327.715L161.278 28.6439C157.998 24.9085 156.475 20.9395 156.475 16.6204C156.475 11.8343 158.232 7.86543 161.747 4.9471C165.144 2.02876 169.83 0.51123 175.805 0.51123H412.923C423.233 0.51123 431.551 4.2467 437.994 11.7176L562.996 154.716C566.277 159.035 568.034 164.638 568.268 171.642C568.503 178.646 566.745 184.249 562.996 188.568L441.157 325.263C437.994 329.115 433.659 331.333 428.27 332.15C422.881 332.968 418.664 331.45 415.383 327.715Z" fill="#FCFCFC"/>
<path d="M271.051 490.091L5.58163 183.782C1.83273 179.463 0.0754305 173.86 0.309736 166.973C0.661196 159.969 2.65281 154.366 6.40171 150.046L91.9236 50.3565C96.2582 45.5705 100.827 43.1191 105.63 43.1191C111.488 43.1191 116.408 45.5705 120.157 50.3565L387.267 363.902C390.43 367.637 392.07 371.606 392.07 375.575C392.07 379.661 390.547 383.513 387.267 387.249L296.941 490.091C293.661 494.41 289.561 496.511 284.406 496.511C279.251 496.511 274.8 494.41 271.051 490.091Z" fill="#FCFCFC"/>
<mask id="mask0_3416_5555" style="mask-type:luminance" maskUnits="userSpaceOnUse" x="723" y="0" width="2286" height="507">
<path d="M3008.29 0.51123H723.289V506.511H3008.29V0.51123Z" fill="white"/>
</mask>
<g mask="url(#mask0_3416_5555)">
<path d="M2803.84 416.919C2783.96 416.919 2766.42 412.087 2751.1 402.304C2735.79 392.522 2723.74 379.203 2714.86 362.113C2705.97 345.023 2701.53 325.694 2701.53 304.125C2701.53 282.438 2705.97 263.227 2714.86 246.49C2723.74 229.754 2735.79 216.789 2751.1 207.478C2766.42 198.284 2783.96 193.688 2803.84 193.688C2833.31 193.688 2857.86 203.942 2877.51 224.568C2897.15 245.194 2906.86 271.595 2906.86 304.125C2906.86 325.222 2902.41 344.434 2893.53 361.76C2884.64 379.085 2872.36 392.64 2856.46 402.304C2840.79 411.969 2823.13 416.919 2803.84 416.919ZM2381.95 505.316C2416.8 505.316 2448.6 497.419 2477.37 481.744C2506.13 466.068 2528.7 444.735 2545.42 417.626C2548.7 412.794 2547.29 408.669 2541.45 405.487L2475.38 370.599C2470 367.889 2465.68 369.303 2462.52 374.607C2456.09 387.1 2445.45 397.118 2430.71 404.662C2415.98 412.205 2400.2 415.976 2383.59 415.976C2354.12 415.976 2329.8 405.487 2310.74 384.271C2291.68 363.174 2282.21 336.066 2282.21 303.064C2282.21 269.473 2291.92 242.601 2311.21 222.328C2330.5 202.056 2354.71 191.92 2383.71 191.92C2403.59 191.92 2421.13 196.634 2436.44 206.181C2451.76 215.61 2462.99 228.104 2470.24 243.544C2477.49 258.984 2479.47 275.602 2476.32 293.517L2480.29 269.945H2268.53L2279.76 339.719H2560.74C2566.59 339.719 2570.1 336.773 2571.15 330.762C2571.73 320.979 2572.2 311.314 2572.78 301.532C2572.78 265.348 2564.83 231.875 2549.05 201.349C2533.26 170.822 2510.93 146.661 2482.16 129.099C2453.4 111.537 2420.07 102.698 2381.95 102.698C2344.42 102.698 2310.28 111.655 2279.64 129.453C2249 147.368 2225.15 171.647 2207.96 202.527C2190.77 233.407 2182.24 267.234 2182.24 304.007C2182.24 342.43 2190.65 377.082 2207.61 407.844C2224.56 438.724 2248.19 462.65 2278.47 479.622C2308.76 496.83 2343.25 505.316 2381.95 505.316ZM1914.93 506.141C1935.28 506.141 1954.22 502.605 1971.64 495.534C1989.07 488.462 2003.21 479.858 2013.97 469.604C2024.73 459.35 2031.4 449.803 2034.08 441.199V487.519C2034.08 490.23 2035.02 492.587 2036.89 494.473C2038.76 496.359 2041.1 497.302 2043.79 497.302H2125.88C2128.56 497.302 2130.79 496.359 2132.77 494.473C2134.65 492.587 2135.58 490.23 2135.58 487.519V10.2938C2135.58 7.58298 2134.65 5.34359 2132.77 3.33993C2130.9 1.45413 2128.56 0.51123 2125.88 0.51123H2043.79C2041.1 0.51123 2038.76 1.45413 2036.89 3.33993C2035.02 5.22573 2034.08 7.58298 2034.08 10.2938V161.983C2031.4 156.09 2024.5 148.311 2013.5 138.882C2002.51 129.453 1988.6 121.084 1971.64 113.777C1954.69 106.469 1936.1 102.816 1915.63 102.816C1880.79 102.816 1849.22 111.655 1821.04 129.217C1792.86 146.778 1770.52 170.94 1754.15 201.467C1737.78 231.993 1729.6 266.291 1729.6 304.125C1729.6 341.959 1737.78 376.375 1754.15 407.255C1770.52 438.135 1792.97 462.296 1821.39 479.858C1849.92 497.302 1881.14 506.141 1914.93 506.141ZM1931.07 416.919C1911.77 416.919 1894.24 412.087 1878.68 402.304C1863.13 392.522 1850.85 379.203 1842.08 362.113C1833.2 345.023 1828.75 325.694 1828.75 304.125C1828.75 282.438 1833.2 263.227 1842.08 246.49C1850.97 229.754 1863.13 216.789 1878.68 207.478C1894.24 198.284 1911.66 193.688 1931.07 193.688C1960.54 193.688 1985.09 203.942 2004.73 224.568C2024.38 245.194 2034.08 271.595 2034.08 304.125C2034.08 325.222 2029.64 344.434 2020.75 361.76C2011.87 379.085 1999.59 392.64 1983.69 402.304C1967.9 411.969 1950.36 416.919 1931.07 416.919ZM1592.79 497.184H1674.87C1677.56 497.184 1679.78 496.241 1681.77 494.355C1683.64 492.469 1684.58 490.112 1684.58 487.401V10.2938C1684.58 7.58298 1683.64 5.34359 1681.77 3.33993C1679.9 1.45413 1677.56 0.51123 1674.87 0.51123H1592.79C1590.1 0.51123 1587.88 1.45413 1585.89 3.33993C1584.02 5.22573 1583.08 7.58298 1583.08 10.2938V487.519C1583.08 490.23 1584.02 492.587 1585.89 494.473C1587.88 496.241 1590.1 497.184 1592.79 497.184ZM1333.55 415.269C1303.5 415.269 1278.36 405.133 1258.25 384.861C1238.14 364.588 1228.08 337.951 1228.08 304.95C1228.08 271.948 1238.14 245.194 1258.25 224.568C1278.36 204.06 1303.5 193.688 1333.55 193.688C1363.6 193.688 1388.74 203.942 1408.86 224.568C1428.97 245.194 1439.02 271.948 1439.02 304.95C1439.02 337.951 1429.08 364.588 1409.21 384.861C1389.44 405.133 1364.19 415.269 1333.55 415.269ZM1333.55 506.141C1372.72 506.141 1407.92 497.184 1439.02 479.386C1470.13 461.471 1494.45 437.31 1511.87 406.783C1529.29 376.257 1538.06 342.312 1538.06 304.95C1538.06 267.587 1529.29 233.525 1511.87 202.645C1494.45 171.765 1470.13 147.486 1439.02 129.57C1407.92 111.773 1372.72 102.816 1333.55 102.816C1294.38 102.816 1259.18 111.773 1228.08 129.57C1196.98 147.486 1172.66 171.765 1155.23 202.645C1137.81 233.525 1129.04 267.587 1129.04 304.95C1129.04 342.312 1137.81 376.257 1155.23 406.783C1172.66 437.31 1196.98 461.589 1228.08 479.386C1259.18 497.184 1294.38 506.141 1333.55 506.141ZM732.877 497.184H814.963C817.652 497.184 819.874 496.241 821.862 494.355C823.733 492.469 824.668 490.112 824.668 487.401V290.217C824.668 260.987 832.385 237.768 848.054 220.442C863.606 203.117 883.718 194.513 908.39 194.513C931.426 194.513 949.667 202.056 963.114 217.26C976.561 232.464 983.226 253.798 983.226 281.377V487.519C983.226 490.23 984.162 492.587 986.032 494.473C987.903 496.359 990.125 497.302 992.931 497.302H1075.02C1077.71 497.302 1079.93 496.359 1081.92 494.473C1083.79 492.587 1084.72 490.23 1084.72 487.519V265.112C1084.72 223.507 1076.77 190.623 1060.99 166.461C1045.2 142.417 1026.37 125.799 1004.63 116.606C982.875 107.412 961.594 102.816 940.663 102.816C914.939 102.816 891.202 107.884 869.453 117.784C847.703 127.803 832.853 140.65 824.785 156.325V10.2938C824.785 7.58298 823.849 5.34359 821.979 3.33993C820.108 1.45413 817.769 0.51123 815.08 0.51123H732.994C730.305 0.51123 728.083 1.45413 726.095 3.33993C724.224 5.22573 723.289 7.58298 723.289 10.2938V487.519C723.289 490.23 724.224 492.587 726.095 494.473C727.966 496.241 730.188 497.184 732.877 497.184ZM2787.7 506.141C2808.05 506.141 2826.99 502.605 2844.41 495.534C2861.84 488.462 2875.99 479.858 2886.74 469.604C2897.5 459.35 2904.17 449.803 2906.86 441.199V487.519C2906.86 490.23 2907.79 492.587 2909.66 494.473C2911.53 496.359 2913.76 497.302 2916.56 497.302H2998.65C3001.34 497.302 3003.56 496.359 3005.55 494.473C3007.42 492.587 3008.35 490.23 3008.35 487.519V10.2938C3008.35 7.58298 3007.42 5.34359 3005.55 3.33993C3003.67 1.45413 3001.34 0.51123 2998.65 0.51123H2916.56C2913.87 0.51123 2911.53 1.45413 2909.66 3.33993C2907.79 5.22573 2906.86 7.58298 2906.86 10.2938V161.983C2904.17 156.09 2897.27 148.311 2886.28 138.882C2875.28 129.453 2861.37 121.084 2844.41 113.777C2827.46 106.469 2808.87 102.816 2788.41 102.816C2753.56 102.816 2721.99 111.655 2693.81 129.217C2665.63 146.778 2643.29 170.94 2627.04 201.467C2610.67 231.993 2602.48 266.291 2602.48 304.125C2602.48 341.959 2610.67 376.375 2627.04 407.255C2643.41 438.135 2665.86 462.296 2694.28 479.858C2722.81 497.302 2753.91 506.141 2787.7 506.141Z" fill="#FCFCFC"/>
</g>
</g>
<defs>
<clipPath id="clip0_3416_5555">
<rect width="3008" height="506" fill="white" transform="translate(0.289062 0.51123)"/>
</clipPath>
</defs>
</svg>
