<svg class="h-18 w-18" width="88" height="14" viewBox="0 0 88 14" fill="none" xmlns="http://www.w3.org/2000/svg">
<path d="M87.0638 4.06002H84.3757C84.0637 2.88402 82.9837 2.42802 81.5437 2.42802C80.2957 2.42802 79.1438 2.98002 79.1438 3.84402C79.1438 4.70802 79.7437 5.16402 80.8717 5.38002L82.6957 5.74002C85.3117 6.24402 87.3037 7.06002 87.3037 9.58002C87.3037 12.268 84.7597 13.756 81.8317 13.756C78.6637 13.756 76.5517 11.932 76.2397 9.50802H79.0238C79.2878 10.852 80.2237 11.596 81.9277 11.596C83.4397 11.596 84.5198 10.972 84.5198 9.91602C84.5198 8.86002 83.5598 8.40402 82.2878 8.14002L80.3438 7.75602C78.1597 7.30002 76.4557 6.36402 76.4557 3.98802C76.4557 1.70802 78.9277 0.244019 81.7117 0.244019C84.2317 0.244019 86.5358 1.46802 87.0638 4.06002Z" fill="#001414"></path>
<path d="M63.6302 9.70001L65.8382 0.532013H68.7902L71.0222 9.70001L72.9182 0.532013H76.0142L72.5822 13.444H69.8702L67.3262 3.89201L64.7822 13.444H62.0702L58.6382 0.532013H61.7342L63.6302 9.70001Z" fill="#001414"></path>
<path d="M48.7311 7.01202C48.7311 10.012 50.3151 11.428 52.1391 11.428C53.9631 11.428 55.5471 10.012 55.5471 7.01202C55.5471 4.03602 53.9631 2.57202 52.1391 2.57202C50.3151 2.57202 48.7311 4.03602 48.7311 7.01202ZM52.1391 0.244019C55.2831 0.244019 58.4991 2.35602 58.4991 7.01202C58.4991 11.692 55.2831 13.756 52.1391 13.756C48.9951 13.756 45.7791 11.692 45.7791 7.01202C45.7791 2.35602 48.9951 0.244019 52.1391 0.244019Z" fill="#001414"></path>
<path d="M45.8409 0.556027V3.43603C45.3609 3.38803 44.9049 3.36403 44.4729 3.36403C42.6729 3.36403 41.6409 4.08403 41.6409 6.67603V13.444H38.7849V0.532026H41.5929V2.83603C42.2889 1.39603 43.5369 0.532026 45.0969 0.508026C45.3129 0.508026 45.6249 0.532026 45.8409 0.556027Z" fill="#001414"></path>
<path d="M28.2281 0.532018V2.33202C28.9721 0.988017 30.3161 0.244019 32.1401 0.244019C35.2601 0.244019 36.5321 2.26002 36.5321 5.33202V13.444H33.6761V6.02802C33.6761 4.30002 33.4361 2.57202 31.2281 2.57202C29.0201 2.57202 28.2281 4.25202 28.2281 6.58002V13.444H25.3721V0.532018H28.2281Z" fill="#001414"></path>
<path d="M23.7405 7.80402H14.1165C14.3085 10.204 15.9885 11.38 17.6205 11.38C19.1325 11.38 20.2845 10.804 20.7885 9.58002H23.5965C23.0205 11.644 21.0525 13.756 17.7405 13.756C13.5885 13.756 11.2125 10.612 11.2125 6.89202C11.2125 3.00402 13.9005 0.244019 17.5485 0.244019C21.5085 0.244019 24.0045 3.48402 23.7405 7.80402ZM17.5485 2.47602C16.2045 2.47602 14.3805 3.29202 14.1165 5.71602H20.8365C20.7645 3.70002 19.2285 2.47602 17.5485 2.47602Z" fill="#001414"></path>
<path d="M0 13.444V11.26L6.912 2.71601H0.48V0.532013H10.464V2.71601L3.528 11.26H10.632V13.444H0Z" fill="#001414"></path>
</svg>